<!--?xml version="1.0" encoding="utf-8"?-->
<!-- Generator: Adobe Illustrator 18.0.0, SVG Export Plug-In . SVG Version: 6.00 Build 0)  -->

<svg version="1.1" id="_x31_0" xmlns="http://www.w3.org/2000/svg" xmlns:xlink="http://www.w3.org/1999/xlink" x="0px" y="0px" viewBox="0 0 512 512" style="width: 256px; height: 256px; opacity: 1;" xml:space="preserve">
<style type="text/css">
	.st0{fill:#374149;}
</style>
<g>
	<path class="st0" d="M256,38L0,180.238l34.16,18.878L35.039,262c0.402,28-1.438,55.918-5.438,83.598
		c0,4.082,1.598,7.84,4.32,10.481c2.641,2.718,6.398,4.402,10.481,4.402c4.078,0,7.758-1.684,10.477-4.402
		c2.722-2.641,4.32-6.398,4.32-10.481c-3.68-25.199-5.519-50.637-5.519-76.078c0-2.48,0.082-5.038,0.082-7.519l0.719-51.519
		l28.961,16.078l33.199,18.481l11.359,6.32l128,71.122l128-71.122l11.359-6.32l33.282-18.481L512,180.238L256,38z" style="fill: rgb(115, 115, 115);"></path>
	<polygon class="st0" points="270.641,348.641 256,356.718 241.442,348.641 113.442,277.598 95.039,267.359 95.039,390.078 256,474 
		417.039,390.078 417.039,267.359 398.562,277.598 	" style="fill: rgb(115, 115, 115);"></polygon>
</g>
</svg>
